<?xml version="1.0" encoding="UTF-8" standalone="no"?>
<!-- Created with Emacs/Gawk from Inkscape original -->
<svg
   xmlns="http://www.w3.org/2000/svg"
   width="604.00000"
   height="600"
   id="svg1307"
   version="1.0">
   
  <defs id="defs1309" />
  <g 
    id="g0001" 
    style="font-style:normal;fill-opacity:1;stroke-width:1px;stroke-linecap:butt;stroke-linejoin:miter;stroke-opacity:1;font-family:Bitstream Vera Sans"
    transform="translate(0,36.00000)">
    <text
       x="44.00000"
       y="-2.00000"
       style="font-size:28.79999924px;font-weight:bold;stroke:none">Input</text>
    <text
       x="380.00000"
       y="-2.00000"
       style="font-size:28.79999924px;font-weight:bold;fill:#000000;stroke:none">Checksum</text>
      <rect
         style="fill:#00ffff;stroke:#000000"
         width="142.00000"
         height="78.00000"
         x="12.00000"
         y="10.00000" />
      <text
         style="font-size:19.20000076px;font-weight:normal;fill:#000000;stroke:none"
         x="22.00000"
         y="55.00000">Fox</text>
      <rect
         style="fill:#ffff90;stroke:#000000"
         width="116.00000"
         height="52.00000"
         x="214.00000"
         y="23.00000" />
      <text
         style="font-size:19.20000076px;font-weight:normal;fill:#000000;stroke:none"
         x="224.00000"
         y="45.00000">checksum</text>
      <text
         style="font-size:19.20000076px;font-weight:normal;fill:#000000;stroke:none"
         x="232.00000"
         y="68.00000">function</text>
    <rect
       x="390.00000"
       y="34.00000"
       height="30.00000"
       width="142.00000"
       style="fill:#ff9ccf;stroke:#000000" />
    <text
       style="font-size:19.20000076px;font-weight:bold;font-family:Courier;fill:#000000;stroke:none"
       x="400.00000"
       y="56.00000">1582054665</text>
    <g id="g5981" transform="translate(154.00000,49.00000)">
      <path
         d="M 0,0 C 60.00000,0 60.00000,0 60.00000,0"
         style="fill:none;stroke:#000000;stroke-width:1.5px" />
      <g id="g2001" transform="translate(60.00000,0)">
        <path
         d="M 0,0 L -16,+6.00 L -16,-6.00 L 0,0 z "
         style="fill:#000000;stroke:#000000;stroke-width:1.5px" />
       </g>
    </g>
    <g id="g5997" transform="translate(330.00000,49.00000)">
      <path
         d="M 0,0 C 60.00000,0 60.00000,0 60.00000,0"
         style="fill:none;stroke:#000000;stroke-width:1.5px" />
      <g id="g2002" transform="translate(60.00000,0)">
        <path
         d="M 0,0 L -16,+6.00 L -16,-6.00 L 0,0 z "
         style="fill:#000000;stroke:#000000;stroke-width:1.5px" />
      </g>
    </g>
      <rect
         style="fill:#00ffff;stroke:#000000"
         width="142.00000"
         height="78.00000"
         x="12.00000"
         y="110.00000" />
      <text
         style="font-size:19.20000076px;font-weight:normal;fill:#000000;stroke:none"
         x="22.00000"
         y="132.00000">The red fox</text>
      <text
         style="font-size:19.20000076px;font-weight:normal;fill:#000000;stroke:none"
         x="22.00000"
         y="155.00000">jumps over</text>
      <text
         style="font-size:19.20000076px;font-weight:normal;fill:#000000;stroke:none"
         x="22.00000"
         y="178.00000">the blue dog</text>
      <rect
         style="fill:#ffff90;stroke:#000000"
         width="116.00000"
         height="52.00000"
         x="214.00000"
         y="123.00000" />
      <text
         style="font-size:19.20000076px;font-weight:normal;fill:#000000;stroke:none"
         x="224.00000"
         y="145.00000">checksum</text>
      <text
         style="font-size:19.20000076px;font-weight:normal;fill:#000000;stroke:none"
         x="232.00000"
         y="168.00000">function</text>
    <rect
       x="390.00000"
       y="134.00000"
       height="30.00000"
       width="142.00000"
       style="fill:#ff9ccf;stroke:#000000" />
    <text
       style="font-size:19.20000076px;font-weight:bold;font-family:Courier;fill:#000000;stroke:none"
       x="400.00000"
       y="156.00000">2367213558</text>
    <g id="g5981" transform="translate(154.00000,149.00000)">
      <path
         d="M 0,0 C 60.00000,0 60.00000,0 60.00000,0"
         style="fill:none;stroke:#000000;stroke-width:1.5px" />
      <g id="g2001" transform="translate(60.00000,0)">
        <path
         d="M 0,0 L -16,+6.00 L -16,-6.00 L 0,0 z "
         style="fill:#000000;stroke:#000000;stroke-width:1.5px" />
       </g>
    </g>
    <g id="g5997" transform="translate(330.00000,149.00000)">
      <path
         d="M 0,0 C 60.00000,0 60.00000,0 60.00000,0"
         style="fill:none;stroke:#000000;stroke-width:1.5px" />
      <g id="g2002" transform="translate(60.00000,0)">
        <path
         d="M 0,0 L -16,+6.00 L -16,-6.00 L 0,0 z "
         style="fill:#000000;stroke:#000000;stroke-width:1.5px" />
      </g>
    </g>
       <rect
         style="fill:#00ffff;stroke:#000000"
         width="142.00000"
         height="78.00000"
         x="12.00000"
         y="210.00000" />
        <text
           style="font-size:19.20000076px;font-weight:normal;fill:#000000;stroke:none"
           x="22.00000"
           y="232.00000">The red fox</text>
        <text
           style="font-size:19.20000076px;font-weight:normal;fill:#000000;stroke:none"
           x="22.00000"
           y="255.00000"><tspan>jumps o</tspan><tspan style="font-weight:bold">u</tspan><tspan>er</tspan></text>
        <text
           style="font-size:19.20000076px;font-weight:normal;fill:#000000;stroke:none"
           x="22.00000"
           y="278.00000">the blue dog</text>
      <rect
         style="fill:#ffff90;stroke:#000000"
         width="116.00000"
         height="52.00000"
         x="214.00000"
         y="223.00000" />
      <text
         style="font-size:19.20000076px;font-weight:normal;fill:#000000;stroke:none"
         x="224.00000"
         y="245.00000">checksum</text>
      <text
         style="font-size:19.20000076px;font-weight:normal;fill:#000000;stroke:none"
         x="232.00000"
         y="268.00000">function</text>
    <rect
       x="390.00000"
       y="234.00000"
       height="30.00000"
       width="142.00000"
       style="fill:#ff9ccf;stroke:#000000" />
    <text
       style="font-size:19.20000076px;font-weight:bold;font-family:Courier;fill:#000000;stroke:none"
       x="400.00000"
       y="256.00000">3043859473</text>
    <g id="g5985" transform="translate(154.00000,249.00000)">
      <path
         d="M 0,0 C 60.00000,0 60.00000,0 60.00000,0"
         style="fill:none;stroke:#000000;stroke-width:1.5px" />
      <g id="g2003" transform="translate(60.00000,0)">
        <path
         d="M 0,0 L -16,+6.00 L -16,-6.00 L 0,0 z "
         style="fill:#000000;stroke:#000000;stroke-width:1.5px" />
      </g>
    </g>
    <g id="g6003" transform="translate(330.00000,249.00000)">
      <path
         d="M 0,0 C 60.00000,0 60.00000,0 60.00000,0"
         style="fill:none;stroke:#000000;stroke-width:1.5px" />
      <g id="g2004" transform="translate(60.00000,0)">
        <path
         d="M 0,0 L -16,+6.00 L -16,-6.00 L 0,0 z "
         style="fill:#000000;stroke:#000000;stroke-width:1.5px" />
      </g>
    </g>
      <rect
         style="fill:#00ffff;stroke:#000000"
         width="142.00000"
         height="78.00000"
         x="12.00000"
         y="310.00000" />
      <text
         style="font-size:19.20000076px;font-weight:normal;fill:#000000;stroke:none"
         x="22.00000"
         y="332.00000">The red fox</text>
      <text
         style="font-size:19.20000076px;font-weight:normal;fill:#000000;stroke:none"
         x="22.00000"
         y="355.00000"><tspan>jumps o</tspan><tspan style="font-weight:bold">ev</tspan><tspan>r</tspan></text>
      <text
         style="font-size:19.20000076px;font-weight:normal;fill:#000000;stroke:none"
         x="22.00000"
         y="378.00000">the blue dog</text>
      <rect
         style="fill:#ffff90;stroke:#000000"
         width="116.00000"
         height="52.00000"
         x="214.00000"
         y="323.00000" />
      <text
         style="font-size:19.20000076px;font-weight:normal;fill:#000000;stroke:none"
         x="224.00000"
         y="345.00000">checksum</text>
      <text
         style="font-size:19.20000076px;font-weight:normal;fill:#000000;stroke:none"
         x="232.00000"
         y="368.00000">function</text>
    <rect
       x="390.00000"
       y="334.00000"
       height="30.00000"
       width="142.00000"
       style="fill:#ff9ccf;stroke:#000000" />
    <text
       style="font-size:19.20000076px;font-weight:bold;font-family:Courier;fill:#000000;stroke:none"
       x="400.00000"
       y="356.00000">1321115126</text>
    <g id="g5991" transform="translate(154.00000,349.00000)">
      <path
         d="M 0,0 C 60.00000,0 60.00000,0 60.00000,0"
         style="fill:none;stroke:#000000;stroke-width:1.5px" />
      <g id="g2005" transform="translate(60.00000,0)">
        <path
         d="M 0,0 L -16,+6.00 L -16,-6.00 L 0,0 z "
         style="fill:#000000;stroke:#000000;stroke-width:1.5px" />
      </g>
    </g>
    <g id="g6009" transform="translate(330.00000,349.00000)">
      <path
         d="M 0,0 C 60.00000,0 60.00000,0 60.00000,0"
         style="fill:none;stroke:#000000;stroke-width:1.5px" />
      <g id="g2006" transform="translate(60.00000,0)">
        <path
         d="M 0,0 L -16,+6.00 L -16,-6.00 L 0,0 z "
         style="fill:#000000;stroke:#000000;stroke-width:1.5px" />
      </g>
    </g>
      <rect
         style="fill:#00ffff;stroke:#000000"
         width="142.00000"
         height="78.00000"
         x="12.00000"
         y="410.00000" />
      <text
         style="font-size:19.20000076px;font-weight:normal;fill:#000000;stroke:none"
         x="22.00000"
         y="432.00000">The red fox</text>
      <text
         style="font-size:19.20000076px;font-weight:normal;fill:#000000;stroke:none"
         x="22.00000"
         y="455.00000"><tspan>jumps </tspan><tspan style="font-weight:bold">oe</tspan><tspan>r</tspan></text>
      <text
         style="font-size:19.20000076px;font-weight:normal;fill:#000000;stroke:none"
         x="22.00000"
         y="478.00000">the blue dog</text>
      <rect
         style="fill:#ffff90;stroke:#000000"
         width="116.00000"
         height="52.00000"
         x="214.00000"
         y="423.00000" />
      <text
         style="font-size:19.20000076px;font-weight:normal;fill:#000000;stroke:none"
         x="224.00000"
         y="445.00000">checksum</text>
      <text
         style="font-size:19.20000076px;font-weight:normal;fill:#000000;stroke:none"
         x="232.00000"
         y="468.00000">function</text>
    <rect
       x="390.00000"
       y="434.00000"
       height="30.00000"
       width="142.00000"
       style="fill:#ff9ccf;stroke:#000000" />
    <text
       style="font-size:19.20000076px;font-weight:bold;font-family:Courier;fill:#000000;stroke:none"
       x="400.00000"
       y="456.00000">1685473544</text>
    <g id="g5991" transform="translate(154.00000,449.00000)">
      <path
         d="M 0,0 C 60.00000,0 60.00000,0 60.00000,0"
         style="fill:none;stroke:#000000;stroke-width:1.5px" />
      <g id="g2005" transform="translate(60.00000,0)">
        <path
         d="M 0,0 L -16,+6.00 L -16,-6.00 L 0,0 z "
         style="fill:#000000;stroke:#000000;stroke-width:1.5px" />
      </g>
    </g>
    <g id="g6009" transform="translate(330.00000,449.00000)">
      <path
         d="M 0,0 C 60.00000,0 60.00000,0 60.00000,0"
         style="fill:none;stroke:#000000;stroke-width:1.5px" />
      <g id="g2006" transform="translate(60.00000,0)">
        <path
         d="M 0,0 L -16,+6.00 L -16,-6.00 L 0,0 z "
         style="fill:#000000;stroke:#000000;stroke-width:1.5px" />
      </g>
    </g>
  </g>
</svg>
